<svg xmlns="http://www.w3.org/2000/svg" width="128" height="128"><path fill="#ffad5a" d="M46.662 19h33.257v90H46.662z"/><path fill="#f9d16e" d="M46.662 109H25.46V39.599h21.202zM79.92 109h22.619V45.667L79.92 39.599V109z"/><path fill="#fff8e3" d="M53.416 28.482h6.355v6.355h-6.355zM66.811 28.482h6.355v6.355h-6.355zM53.416 41.418h6.355v6.355h-6.355zM66.811 41.418h6.355v6.355h-6.355zM53.416 54.354h6.355v6.355h-6.355zM32.884 47.773h6.355v6.355h-6.355zM32.884 62.151h6.355v6.355h-6.355zM32.884 76.528h6.355v6.355h-6.355zM32.884 90.906h6.355v6.355h-6.355zM66.811 54.354h6.355v6.355h-6.355zM87.051 54.354h8.356v4.312h-8.356zM87.051 68.312h8.356v4.312h-8.356zM87.051 82.27h8.356v4.312h-8.356zM87.051 96.228h8.356v4.312h-8.356zM53.416 67.29h6.355v6.355h-6.355zM66.811 67.29h6.355v6.355h-6.355zM53.416 80.227h6.355v6.355h-6.355zM66.811 80.227h6.355v6.355h-6.355zM53.416 93.163h6.355v6.355h-6.355zM66.811 93.163h6.355v6.355h-6.355z"/><path d="M109 110.75H19a1.75 1.75 0 0 1 0-3.5h90a1.75 1.75 0 0 1 0 3.5z" fill="#2d1f5e"/></svg>